<svg viewBox="0 0 160 160" fill="none" xmlns="http://www.w3.org/2000/svg" shape-rendering="crispEdges">
  <!-- Document outline -->
  <rect x="40" y="32" width="80" height="8" fill="currentColor" opacity="0.5"/>
  <rect x="40" y="32" width="8" height="96" fill="currentColor" opacity="0.5"/>
  <rect x="112" y="32" width="8" height="96" fill="currentColor" opacity="0.5"/>
  <rect x="40" y="120" width="80" height="8" fill="currentColor" opacity="0.5"/>

  <!-- Document fill -->
  <rect x="48" y="40" width="64" height="80" fill="currentColor" opacity="0.15"/>

  <!-- Data block rows (fragmented, varying widths) -->
  <!-- Row 1 -->
  <rect x="56" y="48" width="8" height="8" fill="currentColor" opacity="0.35"/>
  <rect x="72" y="48" width="16" height="8" fill="#084CCF" opacity="0.3"/>
  <rect x="96" y="48" width="8" height="8" fill="currentColor" opacity="0.25"/>

  <!-- Row 2 -->
  <rect x="56" y="56" width="16" height="8" fill="currentColor" opacity="0.25"/>
  <rect x="80" y="56" width="8" height="8" fill="currentColor" opacity="0.35"/>
  <rect x="96" y="56" width="8" height="8" fill="#084CCF" opacity="0.3"/>

  <!-- Row 3 -->
  <rect x="56" y="64" width="8" height="8" fill="#084CCF" opacity="0.3"/>
  <rect x="72" y="64" width="16" height="8" fill="currentColor" opacity="0.35"/>
  <rect x="96" y="64" width="8" height="8" fill="currentColor" opacity="0.25"/>

  <!-- Row 4 -->
  <rect x="56" y="72" width="16" height="8" fill="currentColor" opacity="0.35"/>
  <rect x="80" y="72" width="8" height="8" fill="currentColor" opacity="0.25"/>
  <rect x="96" y="72" width="8" height="8" fill="currentColor" opacity="0.35"/>

  <!-- Row 5 -->
  <rect x="56" y="80" width="8" height="8" fill="currentColor" opacity="0.25"/>
  <rect x="72" y="80" width="16" height="8" fill="#084CCF" opacity="0.3"/>
  <rect x="96" y="80" width="8" height="8" fill="currentColor" opacity="0.35"/>

  <!-- Row 6 -->
  <rect x="56" y="88" width="16" height="8" fill="#084CCF" opacity="0.3"/>
  <rect x="80" y="88" width="8" height="8" fill="currentColor" opacity="0.35"/>
  <rect x="96" y="88" width="8" height="8" fill="currentColor" opacity="0.25"/>

  <!-- Row 7 -->
  <rect x="56" y="96" width="8" height="8" fill="currentColor" opacity="0.35"/>
  <rect x="72" y="96" width="16" height="8" fill="currentColor" opacity="0.25"/>
  <rect x="96" y="96" width="8" height="8" fill="#084CCF" opacity="0.3"/>

  <!-- Row 8 -->
  <rect x="56" y="104" width="16" height="8" fill="currentColor" opacity="0.25"/>
  <rect x="80" y="104" width="8" height="8" fill="#084CCF" opacity="0.3"/>
  <rect x="96" y="104" width="8" height="8" fill="currentColor" opacity="0.35"/>

  <!-- Diagonal slash (Zed Blue) -->
  <rect x="48" y="40" width="8" height="8" fill="#084CCF" opacity="0.5"/>
  <rect x="56" y="48" width="8" height="8" fill="#084CCF" opacity="0.5"/>
  <rect x="64" y="56" width="8" height="8" fill="#084CCF" opacity="0.5"/>
  <rect x="72" y="64" width="8" height="8" fill="#084CCF" opacity="0.5"/>
  <rect x="80" y="72" width="8" height="8" fill="#084CCF" opacity="0.5"/>
  <rect x="88" y="80" width="8" height="8" fill="#084CCF" opacity="0.5"/>
  <rect x="96" y="88" width="8" height="8" fill="#084CCF" opacity="0.5"/>
  <rect x="104" y="96" width="8" height="8" fill="#084CCF" opacity="0.5"/>
  <rect x="112" y="104" width="8" height="8" fill="#084CCF" opacity="0.5"/>

  <!-- Decorative pixels -->
  <rect x="32" y="56" width="8" height="8" fill="currentColor" opacity="0.2"/>
  <rect x="128" y="88" width="8" height="8" fill="currentColor" opacity="0.15"/>
</svg>
