<svg viewBox="0 0 160 160" fill="none" xmlns="http://www.w3.org/2000/svg" shape-rendering="crispEdges">
  <!-- Boundary brackets -->
  <!-- Top-left -->
  <rect x="48" y="40" width="16" height="8" fill="currentColor" opacity="0.3"/>
  <rect x="48" y="48" width="8" height="8" fill="currentColor" opacity="0.3"/>
  <!-- Top-right -->
  <rect x="96" y="40" width="16" height="8" fill="currentColor" opacity="0.3"/>
  <rect x="104" y="48" width="8" height="8" fill="currentColor" opacity="0.3"/>
  <!-- Bottom-left -->
  <rect x="48" y="120" width="16" height="8" fill="currentColor" opacity="0.3"/>
  <rect x="48" y="112" width="8" height="8" fill="currentColor" opacity="0.3"/>
  <!-- Bottom-right -->
  <rect x="96" y="120" width="16" height="8" fill="currentColor" opacity="0.3"/>
  <rect x="104" y="112" width="8" height="8" fill="currentColor" opacity="0.3"/>

  <!-- Oversized document outline -->
  <rect x="40" y="16" width="80" height="8" fill="currentColor" opacity="0.5"/>
  <rect x="40" y="16" width="8" height="128" fill="currentColor" opacity="0.5"/>
  <rect x="112" y="16" width="8" height="128" fill="currentColor" opacity="0.5"/>
  <rect x="40" y="136" width="80" height="8" fill="currentColor" opacity="0.5"/>

  <!-- Document fill -->
  <rect x="48" y="24" width="64" height="112" fill="currentColor" opacity="0.15"/>

  <!-- Dense content lines -->
  <rect x="56" y="32" width="48" height="8" fill="currentColor" opacity="0.35"/>
  <rect x="56" y="48" width="56" height="8" fill="currentColor" opacity="0.35"/>
  <rect x="56" y="64" width="40" height="8" fill="currentColor" opacity="0.35"/>
  <rect x="56" y="80" width="48" height="8" fill="currentColor" opacity="0.35"/>
  <rect x="56" y="96" width="56" height="8" fill="currentColor" opacity="0.35"/>
  <rect x="56" y="112" width="40" height="8" fill="currentColor" opacity="0.35"/>

  <!-- Overflow arrows (Zed Blue) -->
  <!-- Up arrow -->
  <rect x="76" y="0" width="8" height="8" fill="#084CCF" opacity="0.85"/>
  <rect x="68" y="8" width="8" height="8" fill="#084CCF" opacity="0.85"/>
  <rect x="76" y="8" width="8" height="8" fill="#084CCF" opacity="0.6"/>
  <rect x="84" y="8" width="8" height="8" fill="#084CCF" opacity="0.85"/>

  <!-- Down arrow -->
  <rect x="68" y="144" width="8" height="8" fill="#084CCF" opacity="0.85"/>
  <rect x="76" y="144" width="8" height="8" fill="#084CCF" opacity="0.6"/>
  <rect x="84" y="144" width="8" height="8" fill="#084CCF" opacity="0.85"/>
  <rect x="76" y="152" width="8" height="8" fill="#084CCF" opacity="0.85"/>

  <!-- Measurement ticks -->
  <rect x="128" y="40" width="8" height="8" fill="#084CCF" opacity="0.5"/>
  <rect x="128" y="120" width="8" height="8" fill="#084CCF" opacity="0.5"/>
</svg>
