<svg viewBox="0 0 120 120" xmlns="http://www.w3.org/2000/svg">
  <!-- Oversized document (extends beyond comfortable bounds) -->
  <rect x="30" y="20" width="60" height="80" rx="2" 
        fill="none" stroke="#71717a" stroke-width="1.5"/>
  
  <!-- Text lines that appear cut off -->
  <line x1="38" y1="35" x2="82" y2="35" stroke="#71717a" stroke-width="1.5" stroke-linecap="round"/>
  <line x1="38" y1="45" x2="82" y2="45" stroke="#71717a" stroke-width="1.5" stroke-linecap="round"/>
  <line x1="38" y1="55" x2="82" y2="55" stroke="#71717a" stroke-width="1.5" stroke-linecap="round"/>
  <line x1="38" y1="65" x2="82" y2="65" stroke="#71717a" stroke-width="1.5" stroke-linecap="round"/>
  <line x1="38" y1="75" x2="82" y2="75" stroke="#71717a" stroke-width="1.5" stroke-linecap="round"/>
  <line x1="38" y1="85" x2="82" y2="85" stroke="#71717a" stroke-width="1.5" stroke-linecap="round"/>
  
  <!-- Expansion arrows -->
  <path d="M15 60 L22 60 M15 60 L18 57 M15 60 L18 63" 
        stroke="#f59e0b" stroke-width="1.5" stroke-linecap="round" stroke-linejoin="round"/>
  <path d="M105 60 L98 60 M105 60 L102 57 M105 60 L102 63" 
        stroke="#f59e0b" stroke-width="1.5" stroke-linecap="round" stroke-linejoin="round"/>
  <path d="M60 10 L60 17 M60 10 L57 13 M60 10 L63 13" 
        stroke="#f59e0b" stroke-width="1.5" stroke-linecap="round" stroke-linejoin="round"/>
  <path d="M60 110 L60 103 M60 110 L57 107 M60 110 L63 107" 
        stroke="#f59e0b" stroke-width="1.5" stroke-linecap="round" stroke-linejoin="round"/>
</svg>
