<svg viewBox="0 0 160 160" fill="none" xmlns="http://www.w3.org/2000/svg" shape-rendering="crispEdges">
  <!-- Back document (right, offset down) -->
  <rect x="64" y="48" width="56" height="8" fill="currentColor" opacity="0.5"/>
  <rect x="64" y="48" width="8" height="72" fill="currentColor" opacity="0.5"/>
  <rect x="112" y="48" width="8" height="72" fill="currentColor" opacity="0.5"/>
  <rect x="64" y="112" width="56" height="8" fill="currentColor" opacity="0.5"/>
  <rect x="72" y="56" width="40" height="56" fill="currentColor" opacity="0.15"/>

  <!-- Back document lines -->
  <rect x="80" y="64" width="24" height="8" fill="currentColor" opacity="0.35"/>
  <rect x="80" y="80" width="24" height="8" fill="currentColor" opacity="0.35"/>
  <rect x="80" y="96" width="16" height="8" fill="currentColor" opacity="0.35"/>

  <!-- Front document (left, offset up) -->
  <rect x="40" y="24" width="56" height="8" fill="currentColor" opacity="0.5"/>
  <rect x="40" y="24" width="8" height="72" fill="currentColor" opacity="0.5"/>
  <rect x="88" y="24" width="8" height="72" fill="currentColor" opacity="0.5"/>
  <rect x="40" y="88" width="56" height="8" fill="currentColor" opacity="0.5"/>
  <rect x="48" y="32" width="40" height="56" fill="currentColor" opacity="0.1"/>

  <!-- Front document lines -->
  <rect x="56" y="40" width="24" height="8" fill="currentColor" opacity="0.35"/>
  <rect x="56" y="56" width="24" height="8" fill="currentColor" opacity="0.35"/>
  <rect x="56" y="72" width="16" height="8" fill="currentColor" opacity="0.35"/>

  <!-- Equals sign (Zed Blue) -->
  <rect x="64" y="64" width="32" height="24" fill="#084CCF" opacity="0.2"/>
  <rect x="72" y="64" width="16" height="8" fill="#084CCF"/>
  <rect x="72" y="80" width="16" height="8" fill="#084CCF"/>

  <!-- Decorative pixels -->
  <rect x="32" y="40" width="8" height="8" fill="currentColor" opacity="0.2"/>
  <rect x="128" y="104" width="8" height="8" fill="currentColor" opacity="0.15"/>
</svg>
