<svg viewBox="0 0 160 160" fill="none" xmlns="http://www.w3.org/2000/svg" shape-rendering="crispEdges">
  <!-- Document outline -->
  <rect x="40" y="24" width="56" height="8" fill="currentColor" opacity="0.5"/>
  <rect x="40" y="24" width="8" height="104" fill="currentColor" opacity="0.5"/>
  <rect x="104" y="40" width="8" height="88" fill="currentColor" opacity="0.5"/>
  <rect x="40" y="120" width="72" height="8" fill="currentColor" opacity="0.5"/>

  <!-- Document fill -->
  <rect x="48" y="32" width="56" height="88" fill="currentColor" opacity="0.15"/>

  <!-- Corner fold -->
  <rect x="96" y="24" width="8" height="8" fill="currentColor" opacity="0.4"/>
  <rect x="104" y="32" width="8" height="8" fill="currentColor" opacity="0.4"/>
  <rect x="96" y="32" width="8" height="8" fill="currentColor" opacity="0.25"/>

  <!-- Content lines -->
  <rect x="56" y="48" width="32" height="8" fill="currentColor" opacity="0.35"/>
  <rect x="56" y="64" width="40" height="8" fill="currentColor" opacity="0.35"/>
  <rect x="56" y="80" width="24" height="8" fill="currentColor" opacity="0.35"/>
  <rect x="56" y="96" width="40" height="8" fill="currentColor" opacity="0.35"/>

  <!-- Pixel cursor (Zed Blue) -->
  <rect x="120" y="48" width="8" height="8" fill="#084CCF" opacity="0.85"/>
  <rect x="120" y="56" width="8" height="8" fill="#084CCF" opacity="0.7"/>
  <rect x="120" y="64" width="8" height="8" fill="#084CCF" opacity="0.6"/>

  <!-- Decorative pixels -->
  <rect x="32" y="48" width="8" height="8" fill="currentColor" opacity="0.2"/>
  <rect x="128" y="96" width="8" height="8" fill="currentColor" opacity="0.15"/>
</svg>
